<?xml version="1.0" encoding="UTF-8"?>
<svg xmlns="http://www.w3.org/2000/svg" width="1440" height="900" viewBox="0 0 1440 900" font-family="Inter, system-ui, sans-serif">
  <!-- ═══ Defs ═══ -->
  <defs>
    <radialGradient id="orbBrand" cx="50%" cy="50%" r="50%">
      <stop offset="0%" stop-color="#00d4a4" stop-opacity="0.14"/>
      <stop offset="100%" stop-color="#00d4a4" stop-opacity="0"/>
    </radialGradient>
    <linearGradient id="cardBg" x1="0" y1="0" x2="0" y2="1">
      <stop offset="0%" stop-color="#1a1d2e"/>
      <stop offset="100%" stop-color="#12141f"/>
    </linearGradient>
    <linearGradient id="ctaFill" x1="0" y1="0" x2="1" y2="1">
      <stop offset="0%" stop-color="#00f0b8"/>
      <stop offset="100%" stop-color="#00d4a4"/>
    </linearGradient>
  </defs>

  <!-- Page background -->
  <rect width="1440" height="900" fill="#0a0b14"/>
  <!-- Single subtle orb -->
  <circle cx="720" cy="560" r="420" fill="url(#orbBrand)"/>

  <!-- ═══ Top bar — logo + wallet chip ═══ -->
  <g transform="translate(96, 40)">
    <rect width="32" height="32" rx="8" fill="url(#ctaFill)"/>
    <path d="M10 16 L14 20 L22 12" stroke="#0a0b14" stroke-width="2.5" stroke-linecap="round" stroke-linejoin="round" fill="none"/>
    <text x="48" y="16" font-size="14" font-weight="600" fill="#f1f3f9" dominant-baseline="middle">Canton Snap</text>
  </g>

  <!-- Connected wallet chip (right) -->
  <g transform="translate(1200, 40)">
    <rect width="144" height="32" rx="8" fill="#1a1d2e" stroke="#353a5a"/>
    <circle cx="16" cy="16" r="4" fill="#34d399"/>
    <text x="30" y="16" font-size="12" font-family="JetBrains Mono, monospace" fill="#f1f3f9" dominant-baseline="middle">0x742d…4B9e</text>
  </g>

  <!-- ═══ Page header ═══ -->
  <g transform="translate(0, 180)">
    <text x="720" y="0" font-size="36" font-weight="700" fill="#f1f3f9" text-anchor="middle" letter-spacing="-0.6">Choose how to manage your Canton key</text>
    <text x="720" y="36" font-size="15" fill="#a1a6c4" text-anchor="middle">Same custodial vs self-custody choice you know from EVM.</text>
  </g>

  <!-- ═══ Two minimal cards side by side ═══ -->

  <!-- Custodial card -->
  <g transform="translate(240, 300)">
    <rect width="460" height="360" rx="16" fill="url(#cardBg)" stroke="#252840"/>

    <!-- Icon -->
    <g transform="translate(32, 32)">
      <rect width="40" height="40" rx="10" fill="#8b7cff" fill-opacity="0.12"/>
      <g transform="translate(10, 10)" stroke="#8b7cff" stroke-width="1.8" fill="none" stroke-linecap="round" stroke-linejoin="round">
        <rect x="3" y="8" width="14" height="10" rx="2"/>
        <path d="M6 8 V6 C6 4 8 2 10 2 C12 2 14 4 14 6 V8"/>
      </g>
    </g>

    <!-- Title -->
    <text x="32" y="108" font-size="20" font-weight="700" fill="#f1f3f9">Custodial</text>
    <text x="32" y="134" font-size="13" fill="#a1a6c4">Server manages your Canton signing key.</text>

    <!-- Divider -->
    <line x1="32" y1="166" x2="428" y2="166" stroke="#252840"/>

    <!-- Bullets -->
    <g transform="translate(32, 194)" font-size="13" fill="#a1a6c4">
      <g>
        <circle cx="3" cy="0" r="2.5" fill="#a1a6c4"/>
        <text x="16" y="0" dominant-baseline="middle">One-click registration</text>
      </g>
      <g transform="translate(0, 26)">
        <circle cx="3" cy="0" r="2.5" fill="#a1a6c4"/>
        <text x="16" y="0" dominant-baseline="middle">No snap installation required</text>
      </g>
      <g transform="translate(0, 52)">
        <circle cx="3" cy="0" r="2.5" fill="#a1a6c4"/>
        <text x="16" y="0" dominant-baseline="middle">Server signs transactions on your behalf</text>
      </g>
    </g>

    <!-- CTA -->
    <g transform="translate(32, 292)">
      <rect width="396" height="44" rx="10" fill="#232640" stroke="#353a5a"/>
      <text x="198" y="22" font-size="14" font-weight="600" fill="#f1f3f9" text-anchor="middle" dominant-baseline="middle">Use Custodial</text>
    </g>
  </g>

  <!-- Non-Custodial card -->
  <g transform="translate(740, 300)">
    <rect width="460" height="360" rx="16" fill="url(#cardBg)" stroke="#252840"/>

    <!-- Icon -->
    <g transform="translate(32, 32)">
      <rect width="40" height="40" rx="10" fill="#00d4a4" fill-opacity="0.15"/>
      <g transform="translate(10, 10)" stroke="#00d4a4" stroke-width="1.8" fill="none" stroke-linecap="round" stroke-linejoin="round">
        <path d="M10 2 L3 5 V11 C3 15 6 18 10 19 C14 18 17 15 17 11 V5 Z"/>
        <path d="M7 11 L9 13 L13 8"/>
      </g>
    </g>

    <!-- Title -->
    <text x="32" y="108" font-size="20" font-weight="700" fill="#f1f3f9">Non-Custodial</text>
    <text x="32" y="134" font-size="13" fill="#a1a6c4">MetaMask Snap holds your Canton key.</text>

    <!-- Divider -->
    <line x1="32" y1="166" x2="428" y2="166" stroke="#252840"/>

    <!-- Bullets -->
    <g transform="translate(32, 194)" font-size="13" fill="#a1a6c4">
      <g>
        <circle cx="3" cy="0" r="2.5" fill="#a1a6c4"/>
        <text x="16" y="0" dominant-baseline="middle">Private key never leaves MetaMask</text>
      </g>
      <g transform="translate(0, 26)">
        <circle cx="3" cy="0" r="2.5" fill="#a1a6c4"/>
        <text x="16" y="0" dominant-baseline="middle">Requires the Canton MetaMask Snap</text>
      </g>
      <g transform="translate(0, 52)">
        <circle cx="3" cy="0" r="2.5" fill="#a1a6c4"/>
        <text x="16" y="0" dominant-baseline="middle">You approve every signature</text>
      </g>
    </g>

    <!-- CTA (filled — primary action since this is the snap's purpose) -->
    <g transform="translate(32, 292)">
      <rect width="396" height="44" rx="10" fill="url(#ctaFill)"/>
      <text x="198" y="22" font-size="14" font-weight="600" fill="#0a0b14" text-anchor="middle" dominant-baseline="middle">Use Non-Custodial</text>
    </g>
  </g>

</svg>
