<?xml version="1.0" encoding="UTF-8"?>
<svg xmlns="http://www.w3.org/2000/svg" width="1440" height="900" viewBox="0 0 1440 900" font-family="Inter, system-ui, sans-serif">
  <defs>
    <radialGradient id="orbBrand" cx="50%" cy="50%" r="50%">
      <stop offset="0%" stop-color="#00d4a4" stop-opacity="0.22"/>
      <stop offset="100%" stop-color="#00d4a4" stop-opacity="0"/>
    </radialGradient>
    <linearGradient id="cardBg" x1="0" y1="0" x2="0" y2="1">
      <stop offset="0%" stop-color="#1a1d2e"/>
      <stop offset="100%" stop-color="#12141f"/>
    </linearGradient>
    <linearGradient id="ctaFill" x1="0" y1="0" x2="1" y2="1">
      <stop offset="0%" stop-color="#00f0b8"/>
      <stop offset="100%" stop-color="#00d4a4"/>
    </linearGradient>
    <filter id="softGlow" x="-50%" y="-50%" width="200%" height="200%">
      <feGaussianBlur stdDeviation="16"/>
    </filter>
  </defs>

  <rect width="1440" height="900" fill="#0a0b14"/>
  <circle cx="720" cy="520" r="460" fill="url(#orbBrand)"/>

  <!-- Top bar -->
  <g transform="translate(96, 40)">
    <rect width="32" height="32" rx="8" fill="url(#ctaFill)"/>
    <path d="M10 16 L14 20 L22 12" stroke="#0a0b14" stroke-width="2.5" stroke-linecap="round" stroke-linejoin="round" fill="none"/>
    <text x="48" y="16" font-size="14" font-weight="600" fill="#f1f3f9" dominant-baseline="middle">Canton dApp</text>
  </g>
  <g transform="translate(1200, 40)">
    <rect width="144" height="32" rx="8" fill="#1a1d2e" stroke="#353a5a"/>
    <circle cx="16" cy="16" r="4" fill="#34d399"/>
    <text x="30" y="16" font-size="12" font-family="JetBrains Mono, monospace" fill="#f1f3f9" dominant-baseline="middle">0x742d…4B9e</text>
  </g>

  <!-- ═══ Centered success block ═══ -->
  <g transform="translate(0, 200)">
    <!-- Animated check circle -->
    <g transform="translate(692, 0)">
      <!-- Glow halo -->
      <circle cx="28" cy="28" r="60" fill="#00d4a4" fill-opacity="0.25" filter="url(#softGlow)"/>
      <!-- Outer ring -->
      <circle cx="28" cy="28" r="28" fill="url(#ctaFill)"/>
      <!-- Check -->
      <path d="M17 28 L25 36 L39 22" stroke="#0a0b14" stroke-width="3.2" stroke-linecap="round" stroke-linejoin="round" fill="none"/>
    </g>

    <!-- Title -->
    <text x="720" y="120" font-size="40" font-weight="700" fill="#f1f3f9" text-anchor="middle" letter-spacing="-0.8">You're registered</text>
    <text x="720" y="156" font-size="15" fill="#a1a6c4" text-anchor="middle">Your Canton party is ready. Head to the dashboard to see your balances.</text>
  </g>

  <!-- ═══ Party info card ═══ -->
  <g transform="translate(440, 416)">
    <rect width="560" height="200" rx="16" fill="url(#cardBg)" stroke="#252840"/>

    <!-- Row 1 — Canton party ID -->
    <g transform="translate(32, 32)">
      <text font-size="11" font-weight="600" letter-spacing="1" fill="#656a8a">CANTON PARTY ID</text>
      <g transform="translate(0, 20)">
        <text font-size="14" font-family="JetBrains Mono, monospace" fill="#f1f3f9">user_0x742d35Cc::12201a</text>
        <text y="18" font-size="12" font-family="JetBrains Mono, monospace" fill="#656a8a">…b89c5df2df59b06b36a3bb5d6836a5d03350fb4d</text>
      </g>
      <g transform="translate(470, 14)" stroke="#a1a6c4" stroke-width="1.5" fill="none" stroke-linecap="round" stroke-linejoin="round">
        <rect x="4" y="0" width="14" height="16" rx="2"/>
        <path d="M0 14 V4 Q0 2 2 2 H12"/>
      </g>
    </g>

    <!-- Divider -->
    <line x1="32" y1="120" x2="528" y2="120" stroke="#252840"/>

    <!-- Row 2 — fingerprint -->
    <g transform="translate(32, 140)">
      <text font-size="11" font-weight="600" letter-spacing="1" fill="#656a8a">FINGERPRINT</text>
      <text y="24" font-size="14" font-family="JetBrains Mono, monospace" fill="#f1f3f9">1220a7f3c2b1…8e92f5d4</text>
      <g transform="translate(470, 14)" stroke="#a1a6c4" stroke-width="1.5" fill="none" stroke-linecap="round" stroke-linejoin="round">
        <rect x="4" y="0" width="14" height="16" rx="2"/>
        <path d="M0 14 V4 Q0 2 2 2 H12"/>
      </g>
    </g>
  </g>

  <!-- CTA button -->
  <g transform="translate(530, 660)">
    <rect width="380" height="52" rx="12" fill="url(#ctaFill)"/>
    <text x="190" y="26" font-size="15" font-weight="700" fill="#0a0b14" text-anchor="middle" dominant-baseline="middle">Go to dashboard →</text>
  </g>
</svg>
