<?xml version="1.0" encoding="UTF-8"?>
<svg xmlns="http://www.w3.org/2000/svg" width="1440" height="900" viewBox="0 0 1440 900" font-family="Inter, system-ui, sans-serif">
  <defs>
    <radialGradient id="orbBrand" cx="50%" cy="50%" r="50%">
      <stop offset="0%" stop-color="#00d4a4" stop-opacity="0.10"/>
      <stop offset="100%" stop-color="#00d4a4" stop-opacity="0"/>
    </radialGradient>
    <linearGradient id="cardBg" x1="0" y1="0" x2="0" y2="1">
      <stop offset="0%" stop-color="#1a1d2e"/>
      <stop offset="100%" stop-color="#12141f"/>
    </linearGradient>
    <linearGradient id="cardBgActive" x1="0" y1="0" x2="0" y2="1">
      <stop offset="0%" stop-color="#1e2238"/>
      <stop offset="100%" stop-color="#141729"/>
    </linearGradient>
    <linearGradient id="ctaFill" x1="0" y1="0" x2="1" y2="1">
      <stop offset="0%" stop-color="#00f0b8"/>
      <stop offset="100%" stop-color="#00d4a4"/>
    </linearGradient>

    <symbol id="icoProfile" viewBox="0 0 20 20"><circle cx="10" cy="7" r="3.5" stroke="currentColor" stroke-width="1.6" fill="none"/><path d="M3 17 C3 13 6 11 10 11 C14 11 17 13 17 17" stroke="currentColor" stroke-width="1.6" stroke-linecap="round" fill="none"/></symbol>
    <symbol id="icoBalances" viewBox="0 0 20 20"><rect x="2" y="5" width="16" height="12" rx="2" stroke="currentColor" stroke-width="1.6" fill="none"/><path d="M2 9 H18" stroke="currentColor" stroke-width="1.6"/><circle cx="14" cy="13" r="1.5" fill="currentColor"/></symbol>
    <symbol id="icoTransfer" viewBox="0 0 20 20"><path d="M4 10 H15 M10 5 L15 10 L10 15" stroke="currentColor" stroke-width="1.6" stroke-linecap="round" stroke-linejoin="round" fill="none"/></symbol>
    <symbol id="icoBridge" viewBox="0 0 20 20"><path d="M3 8 H15 M12 5 L15 8 L12 11" stroke="currentColor" stroke-width="1.6" stroke-linecap="round" stroke-linejoin="round" fill="none"/><path d="M17 12 H5 M8 15 L5 12 L8 9" stroke="currentColor" stroke-width="1.6" stroke-linecap="round" stroke-linejoin="round" fill="none"/></symbol>
    <symbol id="icoActivity" viewBox="0 0 20 20"><circle cx="10" cy="10" r="7" stroke="currentColor" stroke-width="1.6" fill="none"/><path d="M10 6 V10 L13 12" stroke="currentColor" stroke-width="1.6" stroke-linecap="round" fill="none"/></symbol>

    <symbol id="checkDone" viewBox="0 0 24 24">
      <circle cx="12" cy="12" r="12" fill="#00d4a4" fill-opacity="0.15"/>
      <path d="M7 12 L10 15 L17 8" stroke="#00d4a4" stroke-width="2.4" stroke-linecap="round" stroke-linejoin="round" fill="none"/>
    </symbol>
  </defs>

  <rect width="1440" height="900" fill="#0a0b14"/>
  <circle cx="960" cy="300" r="440" fill="url(#orbBrand)"/>

  <!-- ═══ SIDEBAR (Transfer active) ═══ -->
  <g>
    <rect width="240" height="900" fill="#0d0f19"/>
    <line x1="240" y1="0" x2="240" y2="900" stroke="#252840"/>

    <g transform="translate(24, 28)">
      <rect width="32" height="32" rx="8" fill="url(#ctaFill)"/>
      <path d="M10 16 L14 20 L22 12" stroke="#0a0b14" stroke-width="2.5" stroke-linecap="round" stroke-linejoin="round" fill="none"/>
      <text x="48" y="16" font-size="14" font-weight="600" fill="#f1f3f9" dominant-baseline="middle">Canton dApp</text>
    </g>
    <line x1="24" y1="80" x2="216" y2="80" stroke="#252840"/>

    <g font-size="13" font-weight="500" transform="translate(0, 104)">
      <g transform="translate(16, 0)"><g transform="translate(16, 10)" color="#a1a6c4"><use href="#icoProfile" width="20" height="20"/></g><text x="48" y="20" fill="#a1a6c4" dominant-baseline="middle">Profile</text></g>
      <g transform="translate(16, 48)"><g transform="translate(16, 10)" color="#a1a6c4"><use href="#icoBalances" width="20" height="20"/></g><text x="48" y="20" fill="#a1a6c4" dominant-baseline="middle">Balances</text></g>

      <!-- Transfer (active) -->
      <g transform="translate(16, 96)">
        <rect width="208" height="40" rx="10" fill="#00d4a4" fill-opacity="0.1"/>
        <rect width="3" height="22" y="9" rx="1.5" fill="#00d4a4"/>
        <g transform="translate(16, 10)" color="#00d4a4"><use href="#icoTransfer" width="20" height="20"/></g>
        <text x="48" y="20" fill="#00d4a4" font-weight="600" dominant-baseline="middle">Transfer</text>
      </g>

      <g transform="translate(16, 144)"><g transform="translate(16, 10)" color="#a1a6c4"><use href="#icoBridge" width="20" height="20"/></g><text x="48" y="20" fill="#a1a6c4" dominant-baseline="middle">Bridge</text></g>
      <g transform="translate(16, 192)"><g transform="translate(16, 10)" color="#a1a6c4"><use href="#icoActivity" width="20" height="20"/></g><text x="48" y="20" fill="#a1a6c4" dominant-baseline="middle">Activity</text></g>
    </g>
  </g>

  <!-- Top bar -->
  <g transform="translate(1056, 40)">
    <rect width="140" height="32" rx="8" fill="#1a1d2e" stroke="#353a5a"/>
    <circle cx="14" cy="16" r="5" fill="#ffb84d"/>
    <text x="28" y="16" font-size="12" font-weight="500" fill="#f1f3f9" dominant-baseline="middle">Canton Devnet</text>
    <path d="M116 13 L120 17 L124 13" stroke="#a1a6c4" stroke-width="1.5" stroke-linecap="round" stroke-linejoin="round" fill="none"/>
  </g>
  <g transform="translate(1204, 40)">
    <rect width="140" height="32" rx="8" fill="#1a1d2e" stroke="#353a5a"/>
    <circle cx="14" cy="16" r="4" fill="#34d399"/>
    <text x="26" y="16" font-size="12" font-family="JetBrains Mono, monospace" fill="#f1f3f9" dominant-baseline="middle">0x742d…4B9e</text>
    <path d="M116 13 L120 17 L124 13" stroke="#a1a6c4" stroke-width="1.5" stroke-linecap="round" stroke-linejoin="round" fill="none"/>
  </g>

  <!-- ═══ MAIN CONTENT — Transfer progress ═══ -->
  <g transform="translate(280, 104)">
    <!-- Back link -->
    <text font-size="13" font-weight="500" fill="#a1a6c4" dominant-baseline="middle">← Back to form</text>

    <g transform="translate(0, 32)">
      <text font-size="28" font-weight="700" fill="#f1f3f9" letter-spacing="-0.4">Confirm transfer</text>
      <text y="28" font-size="13" fill="#a1a6c4">
        <tspan>Sending </tspan>
        <tspan font-weight="600" fill="#f1f3f9" font-family="JetBrains Mono, monospace">100 DEMO</tspan>
        <tspan> to </tspan>
        <tspan font-weight="600" fill="#f1f3f9" font-family="JetBrains Mono, monospace">0xabcd…1234</tspan>
        <tspan> — 2 signatures required.</tspan>
      </text>
    </g>

    <!-- Progress bar -->
    <g transform="translate(0, 96)">
      <rect width="1120" height="4" rx="2" fill="#252840"/>
      <rect width="560" height="4" rx="2" fill="url(#ctaFill)"/>
    </g>

    <!-- Steps container -->
    <g transform="translate(0, 136)">

      <!-- Step 1 — authenticate (DONE) -->
      <g>
        <rect width="1120" height="80" rx="12" fill="url(#cardBg)" stroke="#252840"/>
        <use href="#checkDone" x="24" y="28" width="24" height="24"/>
        <text x="68" y="34" font-size="14" font-weight="600" fill="#f1f3f9" dominant-baseline="middle">Authenticate request</text>
        <text x="68" y="56" font-size="12" font-family="JetBrains Mono, monospace" fill="#656a8a" dominant-baseline="middle">personal_sign(transfer:1713800000) — MetaMask</text>
        <text x="1096" y="44" font-size="11" font-weight="600" letter-spacing="0.5" fill="#00d4a4" text-anchor="end" dominant-baseline="middle">DONE</text>
      </g>

      <!-- Step 2 — prepare (DONE) -->
      <g transform="translate(0, 96)">
        <rect width="1120" height="80" rx="12" fill="url(#cardBg)" stroke="#252840"/>
        <use href="#checkDone" x="24" y="28" width="24" height="24"/>
        <text x="68" y="34" font-size="14" font-weight="600" fill="#f1f3f9" dominant-baseline="middle">Prepare transaction</text>
        <text x="68" y="56" font-size="12" font-family="JetBrains Mono, monospace" fill="#656a8a" dominant-baseline="middle">POST /api/v2/transfer/prepare → hash a7f3c2b1…8e92f5d4</text>
        <text x="1096" y="44" font-size="11" font-weight="600" letter-spacing="0.5" fill="#00d4a4" text-anchor="end" dominant-baseline="middle">DONE</text>
      </g>

      <!-- Step 3 — sign hash (IN PROGRESS) -->
      <g transform="translate(0, 192)">
        <rect width="1120" height="136" rx="12" fill="url(#cardBgActive)" stroke="#00d4a4" stroke-opacity="0.45"/>

        <!-- Spinner -->
        <g transform="translate(24, 28)">
          <circle cx="12" cy="12" r="11" stroke="#252840" stroke-width="2.4" fill="none"/>
          <path d="M23 12 A11 11 0 0 0 12 1" stroke="#00d4a4" stroke-width="2.4" stroke-linecap="round" fill="none"/>
        </g>

        <text x="68" y="34" font-size="15" font-weight="700" fill="#f1f3f9" dominant-baseline="middle">Sign transaction in Canton Snap</text>
        <text x="68" y="56" font-size="12" fill="#a1a6c4" dominant-baseline="middle">The snap will show the transaction hash and a summary. Review and approve.</text>

        <!-- Hash preview -->
        <g transform="translate(68, 72)">
          <rect width="660" height="40" rx="8" fill="#0a0b14" stroke="#252840"/>
          <text x="16" y="20" font-size="11" font-family="JetBrains Mono, monospace" fill="#f1f3f9" dominant-baseline="middle">a7f3c2b1…8e92f5d4</text>
          <text x="644" y="20" font-size="10" fill="#656a8a" text-anchor="end" dominant-baseline="middle">32 bytes</text>
        </g>
        <!-- Action button -->
        <g transform="translate(744, 80)">
          <rect width="180" height="36" rx="8" fill="url(#ctaFill)"/>
          <text x="90" y="18" font-size="12" font-weight="700" fill="#0a0b14" text-anchor="middle" dominant-baseline="middle">Open snap dialog</text>
        </g>

        <text x="1096" y="44" font-size="11" font-weight="600" letter-spacing="0.5" fill="#00d4a4" text-anchor="end" dominant-baseline="middle">IN PROGRESS</text>
      </g>

      <!-- Step 4 — execute (LOCKED) -->
      <g transform="translate(0, 348)" opacity="0.5">
        <rect width="1120" height="80" rx="12" fill="url(#cardBg)" stroke="#252840"/>
        <g transform="translate(24, 28)">
          <circle cx="12" cy="12" r="12" fill="#232640"/>
          <text x="12" y="12" font-size="11" font-weight="700" fill="#656a8a" text-anchor="middle" dominant-baseline="middle">4</text>
        </g>
        <text x="68" y="34" font-size="14" font-weight="600" fill="#a1a6c4" dominant-baseline="middle">Submit to Canton</text>
        <text x="68" y="56" font-size="12" font-family="JetBrains Mono, monospace" fill="#656a8a" dominant-baseline="middle">POST /api/v2/transfer/execute — ledger settlement ~2-4s</text>
        <text x="1096" y="44" font-size="11" font-weight="600" letter-spacing="0.5" fill="#656a8a" text-anchor="end" dominant-baseline="middle">LOCKED</text>
      </g>
    </g>

    <!-- Helper -->
    <text x="560" y="672" font-size="12" fill="#656a8a" text-anchor="middle">The signed transaction expires in 2 minutes. Cancel here returns you to the form.</text>
  </g>
</svg>
