<?xml version="1.0" encoding="UTF-8"?>
<svg xmlns="http://www.w3.org/2000/svg" width="1440" height="900" viewBox="0 0 1440 900" font-family="Inter, system-ui, sans-serif">
  <defs>
    <radialGradient id="orbBrand" cx="50%" cy="50%" r="50%">
      <stop offset="0%" stop-color="#00d4a4" stop-opacity="0.14"/>
      <stop offset="100%" stop-color="#00d4a4" stop-opacity="0"/>
    </radialGradient>
    <linearGradient id="cardBg" x1="0" y1="0" x2="0" y2="1">
      <stop offset="0%" stop-color="#1a1d2e"/>
      <stop offset="100%" stop-color="#12141f"/>
    </linearGradient>
    <linearGradient id="ctaFill" x1="0" y1="0" x2="1" y2="1">
      <stop offset="0%" stop-color="#00f0b8"/>
      <stop offset="100%" stop-color="#00d4a4"/>
    </linearGradient>
    <filter id="checkGlow" x="-50%" y="-50%" width="200%" height="200%">
      <feGaussianBlur stdDeviation="14"/>
    </filter>

    <symbol id="icoProfile" viewBox="0 0 20 20"><circle cx="10" cy="7" r="3.5" stroke="currentColor" stroke-width="1.6" fill="none"/><path d="M3 17 C3 13 6 11 10 11 C14 11 17 13 17 17" stroke="currentColor" stroke-width="1.6" stroke-linecap="round" fill="none"/></symbol>
    <symbol id="icoBalances" viewBox="0 0 20 20"><rect x="2" y="5" width="16" height="12" rx="2" stroke="currentColor" stroke-width="1.6" fill="none"/><path d="M2 9 H18" stroke="currentColor" stroke-width="1.6"/><circle cx="14" cy="13" r="1.5" fill="currentColor"/></symbol>
    <symbol id="icoTransfer" viewBox="0 0 20 20"><path d="M4 10 H15 M10 5 L15 10 L10 15" stroke="currentColor" stroke-width="1.6" stroke-linecap="round" stroke-linejoin="round" fill="none"/></symbol>
    <symbol id="icoBridge" viewBox="0 0 20 20"><path d="M3 8 H15 M12 5 L15 8 L12 11" stroke="currentColor" stroke-width="1.6" stroke-linecap="round" stroke-linejoin="round" fill="none"/><path d="M17 12 H5 M8 15 L5 12 L8 9" stroke="currentColor" stroke-width="1.6" stroke-linecap="round" stroke-linejoin="round" fill="none"/></symbol>
    <symbol id="icoActivity" viewBox="0 0 20 20"><circle cx="10" cy="10" r="7" stroke="currentColor" stroke-width="1.6" fill="none"/><path d="M10 6 V10 L13 12" stroke="currentColor" stroke-width="1.6" stroke-linecap="round" fill="none"/></symbol>
  </defs>

  <rect width="1440" height="900" fill="#0a0b14"/>
  <circle cx="960" cy="300" r="440" fill="url(#orbBrand)"/>

  <!-- ═══ SIDEBAR ═══ -->
  <g>
    <rect width="240" height="900" fill="#0d0f19"/>
    <line x1="240" y1="0" x2="240" y2="900" stroke="#252840"/>

    <g transform="translate(24, 28)">
      <rect width="32" height="32" rx="8" fill="url(#ctaFill)"/>
      <path d="M10 16 L14 20 L22 12" stroke="#0a0b14" stroke-width="2.5" stroke-linecap="round" stroke-linejoin="round" fill="none"/>
      <text x="48" y="16" font-size="14" font-weight="600" fill="#f1f3f9" dominant-baseline="middle">Canton dApp</text>
    </g>
    <line x1="24" y1="80" x2="216" y2="80" stroke="#252840"/>

    <g font-size="13" font-weight="500" transform="translate(0, 104)">
      <g transform="translate(16, 0)"><g transform="translate(16, 10)" color="#a1a6c4"><use href="#icoProfile" width="20" height="20"/></g><text x="48" y="20" fill="#a1a6c4" dominant-baseline="middle">Profile</text></g>
      <g transform="translate(16, 48)"><g transform="translate(16, 10)" color="#a1a6c4"><use href="#icoBalances" width="20" height="20"/></g><text x="48" y="20" fill="#a1a6c4" dominant-baseline="middle">Balances</text></g>

      <g transform="translate(16, 96)">
        <rect width="208" height="40" rx="10" fill="#00d4a4" fill-opacity="0.1"/>
        <rect width="3" height="22" y="9" rx="1.5" fill="#00d4a4"/>
        <g transform="translate(16, 10)" color="#00d4a4"><use href="#icoTransfer" width="20" height="20"/></g>
        <text x="48" y="20" fill="#00d4a4" font-weight="600" dominant-baseline="middle">Transfer</text>
      </g>

      <g transform="translate(16, 144)"><g transform="translate(16, 10)" color="#a1a6c4"><use href="#icoBridge" width="20" height="20"/></g><text x="48" y="20" fill="#a1a6c4" dominant-baseline="middle">Bridge</text></g>
      <g transform="translate(16, 192)"><g transform="translate(16, 10)" color="#a1a6c4"><use href="#icoActivity" width="20" height="20"/></g><text x="48" y="20" fill="#a1a6c4" dominant-baseline="middle">Activity</text></g>
    </g>
  </g>

  <!-- Top bar -->
  <g transform="translate(1056, 40)">
    <rect width="140" height="32" rx="8" fill="#1a1d2e" stroke="#353a5a"/>
    <circle cx="14" cy="16" r="5" fill="#ffb84d"/>
    <text x="28" y="16" font-size="12" font-weight="500" fill="#f1f3f9" dominant-baseline="middle">Canton Devnet</text>
    <path d="M116 13 L120 17 L124 13" stroke="#a1a6c4" stroke-width="1.5" stroke-linecap="round" stroke-linejoin="round" fill="none"/>
  </g>
  <g transform="translate(1204, 40)">
    <rect width="140" height="32" rx="8" fill="#1a1d2e" stroke="#353a5a"/>
    <circle cx="14" cy="16" r="4" fill="#34d399"/>
    <text x="26" y="16" font-size="12" font-family="JetBrains Mono, monospace" fill="#f1f3f9" dominant-baseline="middle">0x742d…4B9e</text>
    <path d="M116 13 L120 17 L124 13" stroke="#a1a6c4" stroke-width="1.5" stroke-linecap="round" stroke-linejoin="round" fill="none"/>
  </g>

  <!-- ═══ MAIN CONTENT ═══ -->
  <g transform="translate(280, 104)">
    <!-- Title row — identical pattern -->
    <g>
      <text font-size="28" font-weight="700" fill="#f1f3f9" letter-spacing="-0.4">Transfer</text>
      <g transform="translate(138, -21)">
        <rect width="128" height="24" rx="12" fill="#00d4a4" fill-opacity="0.12" stroke="#00d4a4" stroke-opacity="0.3"/>
        <text x="64" y="12" font-size="11" font-weight="600" letter-spacing="0.6" fill="#00d4a4" text-anchor="middle" dominant-baseline="middle">NON-CUSTODIAL</text>
      </g>
    </g>
    <text y="28" font-size="13" fill="#a1a6c4">Transfer confirmed on Canton Network.</text>

    <!-- ═══ Steps bar — step 3 complete ═══ -->
    <g transform="translate(290, 78)">
      <line x1="28" y1="18" x2="238" y2="18" stroke="#00d4a4" stroke-width="2"/>
      <line x1="266" y1="18" x2="476" y2="18" stroke="#00d4a4" stroke-width="2"/>

      <!-- Step 1 Details (DONE) -->
      <g transform="translate(14, 18)">
        <circle r="18" fill="#00d4a4" fill-opacity="0.18" stroke="#00d4a4" stroke-width="2"/>
        <path d="M-6 0 L-1 5 L7 -4" stroke="#00d4a4" stroke-width="2.4" fill="none" stroke-linecap="round" stroke-linejoin="round"/>
        <text y="44" font-size="12" font-weight="500" fill="#a1a6c4" text-anchor="middle">Details</text>
      </g>

      <!-- Step 2 Sign (DONE) -->
      <g transform="translate(252, 18)">
        <circle r="18" fill="#00d4a4" fill-opacity="0.18" stroke="#00d4a4" stroke-width="2"/>
        <path d="M-6 0 L-1 5 L7 -4" stroke="#00d4a4" stroke-width="2.4" fill="none" stroke-linecap="round" stroke-linejoin="round"/>
        <text y="44" font-size="12" font-weight="500" fill="#a1a6c4" text-anchor="middle">Sign</text>
      </g>

      <!-- Step 3 Done (ACTIVE) -->
      <g transform="translate(490, 18)">
        <circle r="18" fill="#00d4a4"/>
        <path d="M-6 0 L-1 5 L7 -4" stroke="#0a0b14" stroke-width="2.6" fill="none" stroke-linecap="round" stroke-linejoin="round"/>
        <text y="44" font-size="12" font-weight="600" fill="#f1f3f9" text-anchor="middle">Done</text>
      </g>
    </g>

    <!-- ═══ Success card ═══ -->
    <g transform="translate(176, 200)">
      <rect width="768" height="480" rx="16" fill="url(#cardBg)" stroke="#252840"/>

      <!-- Big glow check -->
      <g transform="translate(352, 48)">
        <circle cx="32" cy="32" r="60" fill="#00d4a4" fill-opacity="0.28" filter="url(#checkGlow)"/>
        <circle cx="32" cy="32" r="32" fill="url(#ctaFill)"/>
        <path d="M20 32 L28 40 L44 24" stroke="#0a0b14" stroke-width="3.4" stroke-linecap="round" stroke-linejoin="round" fill="none"/>
      </g>

      <text x="384" y="164" font-size="26" font-weight="700" fill="#f1f3f9" text-anchor="middle">Transfer sent</text>
      <text x="384" y="194" font-size="14" fill="#a1a6c4" text-anchor="middle">Settled on Canton in under 3 seconds.</text>

      <!-- Receipt rows -->
      <g transform="translate(96, 232)">
        <rect width="576" height="160" rx="12" fill="#0a0b14" stroke="#252840"/>

        <!-- Amount -->
        <g transform="translate(24, 28)" font-size="12">
          <text fill="#656a8a">Amount</text>
          <g transform="translate(552, 0)" text-anchor="end">
            <text fill="#f1f3f9" font-weight="700" font-size="14" font-family="JetBrains Mono, monospace">100.00 DEMO</text>
          </g>
        </g>
        <line x1="24" y1="48" x2="552" y2="48" stroke="#252840"/>

        <!-- Recipient -->
        <g transform="translate(24, 68)" font-size="12">
          <text fill="#656a8a">To</text>
          <g transform="translate(552, 0)" text-anchor="end">
            <text fill="#f1f3f9" font-weight="500" font-family="JetBrains Mono, monospace">0xabcd35Cc…Bc1234</text>
          </g>
        </g>
        <line x1="24" y1="88" x2="552" y2="88" stroke="#252840"/>

        <!-- Transaction hash -->
        <g transform="translate(24, 108)" font-size="12">
          <text fill="#656a8a">Transaction</text>
          <g transform="translate(552, 0)" text-anchor="end">
            <text fill="#f1f3f9" font-weight="500" font-family="JetBrains Mono, monospace">a7f3c2b1…8e92f5d4</text>
          </g>
        </g>
        <line x1="24" y1="128" x2="552" y2="128" stroke="#252840"/>

        <!-- When -->
        <g transform="translate(24, 148)" font-size="12">
          <text fill="#656a8a">Completed</text>
          <text x="552" fill="#f1f3f9" font-weight="500" text-anchor="end">Just now</text>
        </g>
      </g>

      <!-- CTAs -->
      <g transform="translate(96, 412)">
        <!-- Send another (secondary) -->
        <g>
          <rect width="280" height="44" rx="10" fill="#232640" stroke="#353a5a"/>
          <text x="140" y="22" font-size="13" font-weight="600" fill="#f1f3f9" text-anchor="middle" dominant-baseline="middle">Send another</text>
        </g>
        <!-- View in activity (primary) -->
        <g transform="translate(296, 0)">
          <rect width="280" height="44" rx="10" fill="url(#ctaFill)"/>
          <text x="140" y="22" font-size="13" font-weight="700" fill="#0a0b14" text-anchor="middle" dominant-baseline="middle">View in Activity →</text>
        </g>
      </g>
    </g>
  </g>
</svg>
