<?xml version="1.0" encoding="UTF-8"?>
<svg xmlns="http://www.w3.org/2000/svg" width="1440" height="900" viewBox="0 0 1440 900" font-family="Inter, system-ui, sans-serif">
  <defs>
    <radialGradient id="orbBrand" cx="50%" cy="50%" r="50%">
      <stop offset="0%" stop-color="#00d4a4" stop-opacity="0.10"/>
      <stop offset="100%" stop-color="#00d4a4" stop-opacity="0"/>
    </radialGradient>
    <linearGradient id="cardBg" x1="0" y1="0" x2="0" y2="1">
      <stop offset="0%" stop-color="#1a1d2e"/>
      <stop offset="100%" stop-color="#12141f"/>
    </linearGradient>
    <linearGradient id="ctaFill" x1="0" y1="0" x2="1" y2="1">
      <stop offset="0%" stop-color="#00f0b8"/>
      <stop offset="100%" stop-color="#00d4a4"/>
    </linearGradient>

    <symbol id="icoProfile" viewBox="0 0 20 20"><circle cx="10" cy="7" r="3.5" stroke="currentColor" stroke-width="1.6" fill="none"/><path d="M3 17 C3 13 6 11 10 11 C14 11 17 13 17 17" stroke="currentColor" stroke-width="1.6" stroke-linecap="round" fill="none"/></symbol>
    <symbol id="icoBalances" viewBox="0 0 20 20"><rect x="2" y="5" width="16" height="12" rx="2" stroke="currentColor" stroke-width="1.6" fill="none"/><path d="M2 9 H18" stroke="currentColor" stroke-width="1.6"/><circle cx="14" cy="13" r="1.5" fill="currentColor"/></symbol>
    <symbol id="icoTransfer" viewBox="0 0 20 20"><path d="M4 10 H15 M10 5 L15 10 L10 15" stroke="currentColor" stroke-width="1.6" stroke-linecap="round" stroke-linejoin="round" fill="none"/></symbol>
    <symbol id="icoBridge" viewBox="0 0 20 20"><path d="M3 8 H15 M12 5 L15 8 L12 11" stroke="currentColor" stroke-width="1.6" stroke-linecap="round" stroke-linejoin="round" fill="none"/><path d="M17 12 H5 M8 15 L5 12 L8 9" stroke="currentColor" stroke-width="1.6" stroke-linecap="round" stroke-linejoin="round" fill="none"/></symbol>
    <symbol id="icoActivity" viewBox="0 0 20 20"><circle cx="10" cy="10" r="7" stroke="currentColor" stroke-width="1.6" fill="none"/><path d="M10 6 V10 L13 12" stroke="currentColor" stroke-width="1.6" stroke-linecap="round" fill="none"/></symbol>

    <!-- Row-level icons -->
    <symbol id="icoArrowUp" viewBox="0 0 20 20"><path d="M10 15 V5 M5 10 L10 5 L15 10" stroke="currentColor" stroke-width="1.8" stroke-linecap="round" stroke-linejoin="round" fill="none"/></symbol>
    <symbol id="icoArrowDown" viewBox="0 0 20 20"><path d="M10 5 V15 M5 10 L10 15 L15 10" stroke="currentColor" stroke-width="1.8" stroke-linecap="round" stroke-linejoin="round" fill="none"/></symbol>
    <symbol id="icoBridgeArrows" viewBox="0 0 20 20"><path d="M3 7 H15 M12 4 L15 7 L12 10" stroke="currentColor" stroke-width="1.8" stroke-linecap="round" stroke-linejoin="round" fill="none"/><path d="M17 13 H5 M8 16 L5 13 L8 10" stroke="currentColor" stroke-width="1.8" stroke-linecap="round" stroke-linejoin="round" fill="none"/></symbol>
    <symbol id="icoShield" viewBox="0 0 20 20"><path d="M10 2 L3 4 V10 C3 14 6 17 10 18 C14 17 17 14 17 10 V4 Z" stroke="currentColor" stroke-width="1.6" fill="none" stroke-linejoin="round"/><path d="M7 10 L9 12 L13 8" stroke="currentColor" stroke-width="1.6" stroke-linecap="round" stroke-linejoin="round" fill="none"/></symbol>
    <symbol id="icoLink" viewBox="0 0 14 14"><path d="M4 10 L10 4 M6 4 H10 V8" stroke="currentColor" stroke-width="1.5" stroke-linecap="round" stroke-linejoin="round" fill="none"/></symbol>
    <symbol id="icoSearch" viewBox="0 0 14 14"><circle cx="6" cy="6" r="4.5" stroke="currentColor" stroke-width="1.5" fill="none"/><path d="M9.5 9.5 L12 12" stroke="currentColor" stroke-width="1.5" stroke-linecap="round" fill="none"/></symbol>
  </defs>

  <rect width="1440" height="900" fill="#0a0b14"/>
  <circle cx="960" cy="300" r="440" fill="url(#orbBrand)"/>

  <!-- ═══ SIDEBAR ═══ -->
  <g>
    <rect width="240" height="900" fill="#0d0f19"/>
    <line x1="240" y1="0" x2="240" y2="900" stroke="#252840"/>

    <g transform="translate(24, 28)">
      <rect width="32" height="32" rx="8" fill="url(#ctaFill)"/>
      <path d="M10 16 L14 20 L22 12" stroke="#0a0b14" stroke-width="2.5" stroke-linecap="round" stroke-linejoin="round" fill="none"/>
      <text x="48" y="16" font-size="14" font-weight="600" fill="#f1f3f9" dominant-baseline="middle">Canton dApp</text>
    </g>
    <line x1="24" y1="80" x2="216" y2="80" stroke="#252840"/>

    <g font-size="13" font-weight="500" transform="translate(0, 104)">
      <g transform="translate(16, 0)"><g transform="translate(16, 10)" color="#a1a6c4"><use href="#icoProfile" width="20" height="20"/></g><text x="48" y="20" fill="#a1a6c4" dominant-baseline="middle">Profile</text></g>
      <g transform="translate(16, 48)"><g transform="translate(16, 10)" color="#a1a6c4"><use href="#icoBalances" width="20" height="20"/></g><text x="48" y="20" fill="#a1a6c4" dominant-baseline="middle">Balances</text></g>
      <g transform="translate(16, 96)"><g transform="translate(16, 10)" color="#a1a6c4"><use href="#icoTransfer" width="20" height="20"/></g><text x="48" y="20" fill="#a1a6c4" dominant-baseline="middle">Transfer</text></g>
      <g transform="translate(16, 144)"><g transform="translate(16, 10)" color="#a1a6c4"><use href="#icoBridge" width="20" height="20"/></g><text x="48" y="20" fill="#a1a6c4" dominant-baseline="middle">Bridge</text></g>

      <!-- Activity (active) -->
      <g transform="translate(16, 192)">
        <rect width="208" height="40" rx="10" fill="#00d4a4" fill-opacity="0.1"/>
        <rect width="3" height="22" y="9" rx="1.5" fill="#00d4a4"/>
        <g transform="translate(16, 10)" color="#00d4a4"><use href="#icoActivity" width="20" height="20"/></g>
        <text x="48" y="20" fill="#00d4a4" font-weight="600" dominant-baseline="middle">Activity</text>
      </g>
    </g>
  </g>

  <!-- Top bar -->
  <g transform="translate(1056, 40)">
    <rect width="140" height="32" rx="8" fill="#1a1d2e" stroke="#353a5a"/>
    <circle cx="14" cy="16" r="5" fill="#ffb84d"/>
    <text x="28" y="16" font-size="12" font-weight="500" fill="#f1f3f9" dominant-baseline="middle">Canton Devnet</text>
    <path d="M116 13 L120 17 L124 13" stroke="#a1a6c4" stroke-width="1.5" stroke-linecap="round" stroke-linejoin="round" fill="none"/>
  </g>
  <g transform="translate(1204, 40)">
    <rect width="140" height="32" rx="8" fill="#1a1d2e" stroke="#353a5a"/>
    <circle cx="14" cy="16" r="4" fill="#34d399"/>
    <text x="26" y="16" font-size="12" font-family="JetBrains Mono, monospace" fill="#f1f3f9" dominant-baseline="middle">0x742d…4B9e</text>
    <path d="M116 13 L120 17 L124 13" stroke="#a1a6c4" stroke-width="1.5" stroke-linecap="round" stroke-linejoin="round" fill="none"/>
  </g>

  <!-- ═══ MAIN CONTENT ═══ -->
  <g transform="translate(280, 104)">
    <text font-size="28" font-weight="700" fill="#f1f3f9" letter-spacing="-0.4">Activity</text>
    <text y="28" font-size="13" fill="#a1a6c4">Transfers, bridge events, and registration — scoped to this wallet.</text>

    <!-- Search pinned top-right -->
    <g transform="translate(824, 4)">
      <rect width="296" height="36" rx="10" fill="#12141f" stroke="#353a5a"/>
      <g transform="translate(14, 12)" color="#656a8a"><use href="#icoSearch" width="14" height="14"/></g>
      <text x="36" y="18" font-size="12" fill="#656a8a" dominant-baseline="middle">Search by tx hash, party, or token…</text>
    </g>

    <!-- ═══ Filter tabs ═══ -->
    <g transform="translate(0, 72)" font-size="12">
      <!-- All (active) -->
      <g>
        <rect width="60" height="32" rx="8" fill="#1a1d2e" stroke="#353a5a"/>
        <text x="30" y="16" font-weight="600" fill="#f1f3f9" text-anchor="middle" dominant-baseline="middle">All</text>
        <rect x="40" y="6" width="14" height="20" rx="6" fill="#232640"/>
        <text x="47" y="16" font-size="10" font-weight="600" fill="#a1a6c4" text-anchor="middle" dominant-baseline="middle">42</text>
      </g>
      <g transform="translate(72, 0)">
        <rect width="92" height="32" rx="8" fill="#12141f" stroke="#252840"/>
        <text x="46" y="16" font-weight="500" fill="#a1a6c4" text-anchor="middle" dominant-baseline="middle">Transfers</text>
      </g>
      <g transform="translate(176, 0)">
        <rect width="78" height="32" rx="8" fill="#12141f" stroke="#252840"/>
        <text x="39" y="16" font-weight="500" fill="#a1a6c4" text-anchor="middle" dominant-baseline="middle">Bridge</text>
      </g>
      <g transform="translate(266, 0)">
        <rect width="98" height="32" rx="8" fill="#12141f" stroke="#252840"/>
        <text x="49" y="16" font-weight="500" fill="#a1a6c4" text-anchor="middle" dominant-baseline="middle">Registration</text>
      </g>

      <!-- Status pill group, right-aligned -->
      <g transform="translate(900, 0)">
        <rect width="220" height="32" rx="8" fill="#12141f" stroke="#252840"/>
        <!-- active segment: all -->
        <rect x="4" y="4" width="66" height="24" rx="6" fill="#1a1d2e" stroke="#353a5a"/>
        <text x="37" y="16" font-weight="600" fill="#f1f3f9" text-anchor="middle" dominant-baseline="middle">Status: all</text>
        <text x="110" y="16" font-weight="500" fill="#a1a6c4" text-anchor="middle" dominant-baseline="middle">Settled</text>
        <text x="176" y="16" font-weight="500" fill="#a1a6c4" text-anchor="middle" dominant-baseline="middle">Pending</text>
      </g>
    </g>

    <!-- ═══ Column headers ═══ -->
    <g transform="translate(0, 128)" font-size="11" font-weight="600" letter-spacing="1" fill="#656a8a">
      <text x="24" y="0">EVENT</text>
      <text x="700" y="0" text-anchor="end">AMOUNT</text>
      <text x="900" y="0" text-anchor="end">STATUS</text>
      <text x="1096" y="0" text-anchor="end">WHEN</text>
    </g>

    <!-- ═══ Activity list card ═══ -->
    <g transform="translate(0, 144)">
      <rect width="1120" height="528" rx="16" fill="url(#cardBg)" stroke="#252840"/>

      <!-- ─── Group: Today ─── -->
      <g transform="translate(24, 20)">
        <text font-size="10" font-weight="600" letter-spacing="1.2" fill="#656a8a">TODAY · APR 22</text>
      </g>

      <!-- Row 1 — Sent (non-custodial, settled, recent) -->
      <g transform="translate(0, 48)">
        <!-- Icon -->
        <g transform="translate(24, 14)">
          <rect width="40" height="40" rx="10" fill="#00d4a4" fill-opacity="0.12"/>
          <g transform="translate(10, 10)" color="#00d4a4"><use href="#icoArrowUp" width="20" height="20"/></g>
        </g>
        <!-- Description -->
        <text x="80" y="32" font-size="14" font-weight="600" fill="#f1f3f9" dominant-baseline="middle">Sent DEMO</text>
        <text x="80" y="50" font-size="11" fill="#656a8a" dominant-baseline="middle">
          <tspan>To </tspan>
          <tspan font-family="JetBrains Mono, monospace" fill="#a1a6c4">user_0xabcd…f2df59b0</tspan>
          <tspan> · non-custodial · tx </tspan>
          <tspan font-family="JetBrains Mono, monospace" fill="#a1a6c4">a7f3c2b1…8e92f5d4</tspan>
        </text>
        <!-- Amount -->
        <text x="700" y="32" font-size="14" font-weight="700" font-family="JetBrains Mono, monospace" fill="#f1f3f9" text-anchor="end" dominant-baseline="middle">−100.00</text>
        <text x="700" y="50" font-size="11" fill="#656a8a" text-anchor="end" dominant-baseline="middle">DEMO</text>
        <!-- Status -->
        <g transform="translate(842, 24)">
          <rect width="72" height="22" rx="6" fill="#34d399" fill-opacity="0.15"/>
          <circle cx="12" cy="11" r="3" fill="#34d399"/>
          <text x="22" y="11" font-size="11" font-weight="600" fill="#34d399" dominant-baseline="middle">Settled</text>
        </g>
        <!-- Time + link -->
        <text x="1070" y="32" font-size="12" fill="#a1a6c4" text-anchor="end" dominant-baseline="middle">2m ago</text>
        <text x="1070" y="50" font-size="11" fill="#656a8a" text-anchor="end" dominant-baseline="middle">11:42 UTC</text>
        <g transform="translate(1086, 28)" color="#a1a6c4"><use href="#icoLink" width="14" height="14"/></g>
        <line x1="24" y1="72" x2="1096" y2="72" stroke="#252840"/>
      </g>

      <!-- Row 2 — Bridge withdraw (pending, awaiting relayer) -->
      <g transform="translate(0, 120)">
        <g transform="translate(24, 14)">
          <rect width="40" height="40" rx="10" fill="#ffb84d" fill-opacity="0.12"/>
          <g transform="translate(10, 10)" color="#ffb84d"><use href="#icoBridgeArrows" width="20" height="20"/></g>
        </g>
        <text x="80" y="32" font-size="14" font-weight="600" fill="#f1f3f9" dominant-baseline="middle">Bridge withdraw</text>
        <text x="80" y="50" font-size="11" fill="#656a8a" dominant-baseline="middle">
          <tspan fill="#a1a6c4" font-weight="500">Canton</tspan>
          <tspan> → </tspan>
          <tspan fill="#a1a6c4" font-weight="500">Ethereum</tspan>
          <tspan> · USDCx → USDC · canton tx </tspan>
          <tspan font-family="JetBrains Mono, monospace" fill="#a1a6c4">b4d8e9f2…3a7c9e2f</tspan>
        </text>
        <text x="700" y="32" font-size="14" font-weight="700" font-family="JetBrains Mono, monospace" fill="#f1f3f9" text-anchor="end" dominant-baseline="middle">250.00</text>
        <text x="700" y="50" font-size="11" fill="#656a8a" text-anchor="end" dominant-baseline="middle">USDCx → USDC</text>
        <g transform="translate(822, 24)">
          <rect width="92" height="22" rx="6" fill="#ffb84d" fill-opacity="0.15"/>
          <circle cx="12" cy="11" r="3" fill="#ffb84d"/>
          <text x="22" y="11" font-size="11" font-weight="600" fill="#ffb84d" dominant-baseline="middle">Relayer…</text>
        </g>
        <text x="1070" y="32" font-size="12" fill="#a1a6c4" text-anchor="end" dominant-baseline="middle">5m ago</text>
        <text x="1070" y="50" font-size="11" fill="#656a8a" text-anchor="end" dominant-baseline="middle">11:39 UTC</text>
        <g transform="translate(1086, 28)" color="#a1a6c4"><use href="#icoLink" width="14" height="14"/></g>
        <line x1="24" y1="72" x2="1096" y2="72" stroke="#252840"/>
      </g>

      <!-- Row 3 — Received transfer -->
      <g transform="translate(0, 192)">
        <g transform="translate(24, 14)">
          <rect width="40" height="40" rx="10" fill="#60a5fa" fill-opacity="0.14"/>
          <g transform="translate(10, 10)" color="#60a5fa"><use href="#icoArrowDown" width="20" height="20"/></g>
        </g>
        <text x="80" y="32" font-size="14" font-weight="600" fill="#f1f3f9" dominant-baseline="middle">Received DEMO</text>
        <text x="80" y="50" font-size="11" fill="#656a8a" dominant-baseline="middle">
          <tspan>From </tspan>
          <tspan font-family="JetBrains Mono, monospace" fill="#a1a6c4">user_0x91ac…55ed3b</tspan>
          <tspan> · tx </tspan>
          <tspan font-family="JetBrains Mono, monospace" fill="#a1a6c4">3e7d11a2…ba9c4f0e</tspan>
        </text>
        <text x="700" y="32" font-size="14" font-weight="700" font-family="JetBrains Mono, monospace" fill="#34d399" text-anchor="end" dominant-baseline="middle">+50.00</text>
        <text x="700" y="50" font-size="11" fill="#656a8a" text-anchor="end" dominant-baseline="middle">DEMO</text>
        <g transform="translate(842, 24)">
          <rect width="72" height="22" rx="6" fill="#34d399" fill-opacity="0.15"/>
          <circle cx="12" cy="11" r="3" fill="#34d399"/>
          <text x="22" y="11" font-size="11" font-weight="600" fill="#34d399" dominant-baseline="middle">Settled</text>
        </g>
        <text x="1070" y="32" font-size="12" fill="#a1a6c4" text-anchor="end" dominant-baseline="middle">1h ago</text>
        <text x="1070" y="50" font-size="11" fill="#656a8a" text-anchor="end" dominant-baseline="middle">10:44 UTC</text>
        <g transform="translate(1086, 28)" color="#a1a6c4"><use href="#icoLink" width="14" height="14"/></g>
        <line x1="24" y1="72" x2="1096" y2="72" stroke="#252840"/>
      </g>

      <!-- Row 4 — Bridge deposit (settled) -->
      <g transform="translate(0, 264)">
        <g transform="translate(24, 14)">
          <rect width="40" height="40" rx="10" fill="#8b7cff" fill-opacity="0.15"/>
          <g transform="translate(10, 10)" color="#8b7cff"><use href="#icoBridgeArrows" width="20" height="20"/></g>
        </g>
        <text x="80" y="32" font-size="14" font-weight="600" fill="#f1f3f9" dominant-baseline="middle">Bridge deposit</text>
        <text x="80" y="50" font-size="11" fill="#656a8a" dominant-baseline="middle">
          <tspan fill="#a1a6c4" font-weight="500">Ethereum</tspan>
          <tspan> → </tspan>
          <tspan fill="#a1a6c4" font-weight="500">Canton</tspan>
          <tspan> · USDC → USDCx · eth tx </tspan>
          <tspan font-family="JetBrains Mono, monospace" fill="#a1a6c4">0xabcd…f2df59</tspan>
        </text>
        <text x="700" y="32" font-size="14" font-weight="700" font-family="JetBrains Mono, monospace" fill="#f1f3f9" text-anchor="end" dominant-baseline="middle">500.00</text>
        <text x="700" y="50" font-size="11" fill="#656a8a" text-anchor="end" dominant-baseline="middle">USDC → USDCx</text>
        <g transform="translate(842, 24)">
          <rect width="72" height="22" rx="6" fill="#34d399" fill-opacity="0.15"/>
          <circle cx="12" cy="11" r="3" fill="#34d399"/>
          <text x="22" y="11" font-size="11" font-weight="600" fill="#34d399" dominant-baseline="middle">Settled</text>
        </g>
        <text x="1070" y="32" font-size="12" fill="#a1a6c4" text-anchor="end" dominant-baseline="middle">3h ago</text>
        <text x="1070" y="50" font-size="11" fill="#656a8a" text-anchor="end" dominant-baseline="middle">08:51 UTC</text>
        <g transform="translate(1086, 28)" color="#a1a6c4"><use href="#icoLink" width="14" height="14"/></g>
        <line x1="24" y1="72" x2="1096" y2="72" stroke="#252840"/>
      </g>

      <!-- ─── Group: Yesterday ─── -->
      <g transform="translate(24, 352)">
        <text font-size="10" font-weight="600" letter-spacing="1.2" fill="#656a8a">YESTERDAY · APR 21</text>
      </g>

      <!-- Row 5 — Sent (custodial, failed) -->
      <g transform="translate(0, 380)">
        <g transform="translate(24, 14)">
          <rect width="40" height="40" rx="10" fill="#ff6b6b" fill-opacity="0.12"/>
          <g transform="translate(10, 10)" color="#ff6b6b"><use href="#icoArrowUp" width="20" height="20"/></g>
        </g>
        <text x="80" y="32" font-size="14" font-weight="600" fill="#f1f3f9" dominant-baseline="middle">Sent PROMPT</text>
        <text x="80" y="50" font-size="11" fill="#656a8a" dominant-baseline="middle">
          <tspan>To </tspan>
          <tspan font-family="JetBrains Mono, monospace" fill="#a1a6c4">user_0x7c4e…d1a20c</tspan>
          <tspan> · custodial · rejected by ledger (insufficient authorization)</tspan>
        </text>
        <text x="700" y="32" font-size="14" font-weight="700" font-family="JetBrains Mono, monospace" fill="#a1a6c4" text-anchor="end" dominant-baseline="middle">−20</text>
        <text x="700" y="50" font-size="11" fill="#656a8a" text-anchor="end" dominant-baseline="middle">PROMPT</text>
        <g transform="translate(842, 24)">
          <rect width="72" height="22" rx="6" fill="#ff6b6b" fill-opacity="0.14"/>
          <circle cx="12" cy="11" r="3" fill="#ff6b6b"/>
          <text x="22" y="11" font-size="11" font-weight="600" fill="#ff6b6b" dominant-baseline="middle">Failed</text>
        </g>
        <text x="1070" y="32" font-size="12" fill="#a1a6c4" text-anchor="end" dominant-baseline="middle">Yesterday</text>
        <text x="1070" y="50" font-size="11" fill="#656a8a" text-anchor="end" dominant-baseline="middle">22:03 UTC</text>
        <g transform="translate(1086, 28)" color="#a1a6c4"><use href="#icoLink" width="14" height="14"/></g>
        <line x1="24" y1="72" x2="1096" y2="72" stroke="#252840"/>
      </g>

      <!-- Row 6 — Registration -->
      <g transform="translate(0, 452)">
        <g transform="translate(24, 14)">
          <rect width="40" height="40" rx="10" fill="#00d4a4" fill-opacity="0.12"/>
          <g transform="translate(10, 10)" color="#00d4a4"><use href="#icoShield" width="20" height="20"/></g>
        </g>
        <text x="80" y="32" font-size="14" font-weight="600" fill="#f1f3f9" dominant-baseline="middle">Registered Canton party</text>
        <text x="80" y="50" font-size="11" fill="#656a8a" dominant-baseline="middle">
          <tspan>Key mode </tspan>
          <tspan fill="#a1a6c4" font-weight="500">non-custodial</tspan>
          <tspan> · party </tspan>
          <tspan font-family="JetBrains Mono, monospace" fill="#a1a6c4">user_0x742d…f2df59b0</tspan>
        </text>
        <text x="700" y="40" font-size="12" fill="#656a8a" text-anchor="end" dominant-baseline="middle">—</text>
        <g transform="translate(842, 24)">
          <rect width="72" height="22" rx="6" fill="#34d399" fill-opacity="0.15"/>
          <circle cx="12" cy="11" r="3" fill="#34d399"/>
          <text x="22" y="11" font-size="11" font-weight="600" fill="#34d399" dominant-baseline="middle">Settled</text>
        </g>
        <text x="1070" y="32" font-size="12" fill="#a1a6c4" text-anchor="end" dominant-baseline="middle">Yesterday</text>
        <text x="1070" y="50" font-size="11" fill="#656a8a" text-anchor="end" dominant-baseline="middle">15:17 UTC</text>
        <g transform="translate(1086, 28)" color="#a1a6c4"><use href="#icoLink" width="14" height="14"/></g>
      </g>
    </g>

    <!-- ═══ Footer / pagination ═══ -->
    <g transform="translate(0, 692)" font-size="12">
      <text y="12" fill="#656a8a" dominant-baseline="middle">Showing 6 of 42 events</text>

      <g transform="translate(944, 0)">
        <rect width="176" height="36" rx="10" fill="#1a1d2e" stroke="#353a5a"/>
        <text x="88" y="18" font-weight="600" fill="#f1f3f9" text-anchor="middle" dominant-baseline="middle">Load 20 more ↓</text>
      </g>
    </g>
  </g>
</svg>
